<svg xmlns="http://www.w3.org/2000/svg" width="36.813" height="38.618" viewBox="0 0 36.813 38.618">
  <defs>
    <style>
      .cls-1 {
        fill: #f18800;
      }

      .cls-2 {
        fill: #5685c4;
      }
    </style>
  </defs>
  <g id="products" transform="translate(-171.948 -3108)">
    <path id="Path_28516" data-name="Path 28516" class="cls-1" d="M4009.665,1151.4a1.652,1.652,0,1,0,1.651,1.652A1.652,1.652,0,0,0,4009.665,1151.4Z" transform="translate(-3806.854 1988.05)"/>
    <path id="Path_28517" data-name="Path 28517" class="cls-2" d="M3968.487,1140.853l-31.177,0a2.679,2.679,0,0,0-2,.868,2.766,2.766,0,0,0-.839,1.965v5.686a2.983,2.983,0,0,0,2.837,2.834h31.141a2.977,2.977,0,0,0,2.834-2.834v-5.686a2.751,2.751,0,0,0-.833-1.936A2.67,2.67,0,0,0,3968.487,1140.853Zm-29.183,8.617h-1.993v-1.245h1.993Zm0-2.3h-1.993v-1.245h1.993Zm0-2.274h-1.993v-1.245h1.993Zm4,4.572h-2.013v-1.245h2.013Zm0-2.3h-2.013v-1.245h2.013Zm0-2.274h-2.013v-1.245h2.013Zm3.943,4.572h-1.958v-1.245h1.958Zm0-2.3h-1.958v-1.245h1.958Zm0-2.274h-1.958v-1.245h1.958Zm4,4.572h-2v-1.245h2Zm0-2.3h-2v-1.245h2Zm0-2.274h-2v-1.245h2Zm14.091,4.688a2.891,2.891,0,1,1,2.891-2.891A2.891,2.891,0,0,1,3965.336,1149.585Z" transform="translate(-3762.525 1994.408)"/>
    <path id="Path_28518" data-name="Path 28518" class="cls-1" d="M4009.665,1117.341a1.652,1.652,0,1,0,1.651,1.652A1.652,1.652,0,0,0,4009.665,1117.341Z" transform="translate(-3806.854 2008.581)"/>
    <path id="Path_28519" data-name="Path 28519" class="cls-2" d="M3968.487,1106.794l-31.177,0a2.68,2.68,0,0,0-2,.869,2.765,2.765,0,0,0-.839,1.965v5.685a2.983,2.983,0,0,0,2.837,2.834h31.141a2.977,2.977,0,0,0,2.834-2.834v-5.685a2.75,2.75,0,0,0-.833-1.936A2.669,2.669,0,0,0,3968.487,1106.794Zm-29.183,8.617h-1.993v-1.245h1.993Zm0-2.3h-1.993v-1.245h1.993Zm0-2.274h-1.993v-1.245h1.993Zm4,4.572h-2.013v-1.245h2.013Zm0-2.3h-2.013v-1.245h2.013Zm0-2.274h-2.013v-1.245h2.013Zm3.943,4.572h-1.958v-1.245h1.958Zm0-2.3h-1.958v-1.245h1.958Zm0-2.274h-1.958v-1.245h1.958Zm4,4.572h-2v-1.245h2Zm0-2.3h-2v-1.245h2Zm0-2.274h-2v-1.245h2Zm14.091,4.688a2.891,2.891,0,1,1,2.891-2.891A2.891,2.891,0,0,1,3965.336,1115.526Z" transform="translate(-3762.525 2014.938)"/>
    <path id="Path_28520" data-name="Path 28520" class="cls-1" d="M4009.665,1082.769a1.652,1.652,0,1,0,1.651,1.652A1.652,1.652,0,0,0,4009.665,1082.769Z" transform="translate(-3806.854 2029.42)"/>
    <path id="Path_28521" data-name="Path 28521" class="cls-2" d="M3970.453,1073.123a2.67,2.67,0,0,0-1.966-.9l-31.177,0a2.681,2.681,0,0,0-2,.869,2.765,2.765,0,0,0-.839,1.966v5.685a2.984,2.984,0,0,0,2.837,2.835h31.141a2.978,2.978,0,0,0,2.834-2.835v-5.685A2.751,2.751,0,0,0,3970.453,1073.123Zm-31.149,7.715h-1.993v-1.245h1.993Zm0-2.3h-1.993V1077.3h1.993Zm0-2.274h-1.993v-1.245h1.993Zm4,4.573h-2.013v-1.245h2.013Zm0-2.3h-2.013V1077.3h2.013Zm0-2.274h-2.013v-1.245h2.013Zm3.943,4.573h-1.958v-1.245h1.958Zm0-2.3h-1.958V1077.3h1.958Zm0-2.274h-1.958v-1.245h1.958Zm4,4.573h-2v-1.245h2Zm0-2.3h-2V1077.3h2Zm0-2.274h-2v-1.245h2Zm14.091,4.688a2.891,2.891,0,1,1,2.891-2.891A2.891,2.891,0,0,1,3965.336,1080.954Z" transform="translate(-3762.525 2035.778)"/>
  </g>
</svg>
